<svg width="865" height="290" viewBox="0 0 865 290" fill="none" xmlns="http://www.w3.org/2000/svg">
<path fill-rule="evenodd" clip-rule="evenodd" d="M0 126.773V136.272C0 172.373 20.0114 206.804 38.1631 224.961C57.0282 243.833 88.3362 262.872 125.867 262.872H128.975C150.609 262.872 164.816 255.347 178.301 247.102C185.563 242.662 195.233 235.374 200.454 228.675C201.388 227.477 202.893 225.826 204.123 224.227C206.213 221.51 208.806 217.081 210.641 214.34C203.46 214.34 197.772 219.07 193.411 222.147C181.306 230.689 154.727 243.356 139.334 243.356H137.435C131.837 243.356 116.025 237.609 116.025 232.129C116.025 230.148 117.591 229.884 119.479 229.884C128.208 229.884 140.324 234.72 146.586 234.72H149.003C157.95 234.72 168.168 229.243 168.168 219.694C151.459 219.694 147.889 219.927 131.871 215.242C124.496 213.085 115.357 209.676 106.184 209.676C93.3462 209.676 86.1182 215.242 73.6481 215.242C54.7789 215.242 39.8451 198.616 32.512 186.48C23.4945 171.556 16.9205 153.165 16.9205 129.882C16.9205 67.5925 67.717 17.2715 130.183 17.2715C147.968 17.2715 165.563 21.5154 177.722 27.5763C189.987 33.6902 202.348 41.5065 210.849 51.2617C220.734 62.6054 226.512 70.8771 232.974 85.7795C237.368 95.9132 241.923 117.273 241.923 132.79C241.923 146.85 237.449 166.968 232.82 179.184C222.771 205.702 208.933 229.57 185.957 245.952C177.848 251.734 168.721 256.364 159.794 260C153.991 262.363 154.285 262.009 151.536 262.872C156.223 262.872 164.927 261.676 172.292 259.554C185.459 255.76 192.155 251.966 198.627 248.172C216.927 235.227 238.702 212.715 249.144 185.842C253.939 173.503 260 153.059 260 136.137V123.863C260 105.914 252.832 85.258 246.784 73.1735C240.282 60.1835 230.443 46.0131 220.103 36.9958C207.013 25.5813 198.958 19.2789 182.435 11.8079C169.823 6.10556 149.485 0 131.392 0H121.378C86.4913 0 52.4652 20.1883 36.2232 38.8262C26.3805 50.1204 17.9233 61.3348 11.6105 76.2099C6.01909 89.3857 0 108.211 0 126.773Z" fill="white"/>
<path fill-rule="evenodd" clip-rule="evenodd" d="M54.455 106.037V107.937C54.455 129.453 71.9948 148.54 83.0728 159.622C88.8268 165.378 121.725 193.604 129.388 193.604C133.792 193.604 150.561 181.043 154.275 178.257C162.031 172.439 169.165 166.335 175.962 159.536C186.034 149.46 205.012 126.929 205.012 107.764V104.483C205.012 80.8542 172.381 57.9069 144.871 74.7193C141.895 76.5377 131.335 85.8295 129.215 85.8295C127.341 85.8295 122.218 80.0127 120.363 78.6224C108.68 69.8702 99.1265 66.4154 83.3571 70.3536C67.7091 74.2612 54.455 86.7115 54.455 106.037Z" fill="white"/>
<path d="M295.196 106L322.681 31.4276H332.163L359.541 106H350.06L343.242 86.8242H311.495L304.571 106H295.196ZM314.159 79.5801H340.579L327.369 42.72L314.159 79.5801ZM391.471 107.278C386.499 107.278 381.99 106.142 377.941 103.869C373.964 101.597 370.804 98.4007 368.46 94.2815C366.116 90.0912 364.944 85.1907 364.944 79.5801C364.944 74.1114 366.081 69.3175 368.353 65.1982C370.626 61.008 373.751 57.741 377.728 55.3973C381.706 53.0536 386.286 51.8817 391.471 51.8817C397.721 51.8817 402.976 53.5152 407.238 56.7822C411.57 60.0492 414.304 64.417 415.441 69.8856H406.279C405.569 66.6187 403.829 64.0974 401.059 62.3219C398.289 60.4753 395.058 59.552 391.364 59.552C387.6 59.552 384.44 60.4753 381.883 62.3219C379.326 64.1684 377.373 66.6187 376.024 69.6726C374.745 72.7265 374.106 76.029 374.106 79.5801C374.106 83.4862 374.852 86.9663 376.343 90.0202C377.835 93.0741 379.859 95.4533 382.416 97.1578C385.044 98.8624 388.026 99.7146 391.364 99.7146C395.058 99.7146 398.289 98.8268 401.059 97.0513C403.829 95.2048 405.569 92.6125 406.279 89.2745H415.441C414.73 92.8255 413.274 95.9505 411.073 98.6493C408.871 101.348 406.101 103.479 402.763 105.041C399.425 106.533 395.661 107.278 391.471 107.278ZM445.516 107.278C441.894 107.278 438.591 106.675 435.608 105.467C432.626 104.26 430.246 102.449 428.471 100.034C426.766 97.5485 425.914 94.5301 425.914 90.979C425.914 86.8597 426.979 83.5928 429.11 81.178C431.241 78.6923 434.046 76.9168 437.526 75.8514C441.077 74.7151 444.877 74.1469 448.925 74.1469H463.2C463.2 70.4538 462.561 67.5419 461.283 65.4113C460.075 63.2807 458.477 61.7537 456.489 60.8304C454.5 59.9071 452.298 59.4455 449.884 59.4455C446.404 59.4455 443.385 60.2978 440.829 62.0023C438.343 63.6358 436.78 66.1925 436.141 69.6726H426.979C427.334 65.8374 428.613 62.606 430.815 59.9782C433.016 57.3504 435.786 55.3618 439.124 54.0124C442.533 52.5919 446.12 51.8817 449.884 51.8817C455.21 51.8817 459.507 52.876 462.774 54.8646C466.041 56.7822 468.42 59.3745 469.912 62.6415C471.403 65.9085 472.149 69.5305 472.149 73.5077V89.7006C472.149 92.3284 472.469 94.317 473.108 95.6664C473.747 97.0158 475.38 97.8325 478.008 98.1166V106C475.665 106 473.534 105.716 471.616 105.148C469.699 104.509 468.065 103.514 466.716 102.165C465.437 100.744 464.514 98.8979 463.946 96.6252C462.17 99.6081 459.72 102.129 456.595 104.189C453.541 106.249 449.848 107.278 445.516 107.278ZM446.901 99.7146C450.452 99.7146 453.435 98.8268 455.85 97.0513C458.264 95.2048 460.075 92.8611 461.283 90.0202C462.561 87.1793 463.2 84.232 463.2 81.178V81.0715H449.671C447.185 81.0715 444.841 81.3556 442.64 81.9238C440.438 82.4209 438.662 83.3797 437.313 84.8001C435.964 86.1495 435.289 88.0671 435.289 90.5529C435.289 93.7488 436.425 96.0925 438.698 97.584C440.971 99.0044 443.705 99.7146 446.901 99.7146ZM488.799 106V31.4276H497.747V106H488.799ZM512.415 106V53.1601H520.511L521.15 60.8304C522.855 57.9896 525.128 55.7879 527.968 54.2254C530.809 52.663 534.005 51.8817 537.556 51.8817C541.747 51.8817 545.333 52.734 548.316 54.4385C551.37 56.143 553.714 58.7353 555.347 62.2153C557.194 59.0194 559.715 56.4981 562.911 54.6516C566.178 52.805 569.693 51.8817 573.458 51.8817C577.719 51.8817 581.376 52.734 584.43 54.4385C587.555 56.072 589.97 58.6288 591.675 62.1088C593.379 65.5178 594.231 69.8501 594.231 75.1057V106H585.389V76.0645C585.389 70.5959 584.288 66.4766 582.087 63.7068C579.885 60.937 576.725 59.552 572.605 59.552C568.344 59.552 564.793 61.221 561.952 64.559C559.182 67.826 557.797 72.5134 557.797 78.6213V106H548.849V76.0645C548.849 70.5959 547.748 66.4766 545.546 63.7068C543.345 60.937 540.184 59.552 536.065 59.552C531.875 59.552 528.359 61.221 525.518 64.559C522.748 67.826 521.363 72.5134 521.363 78.6213V106H512.415ZM631.468 107.278C626.567 107.278 622.128 106.142 618.151 103.869C614.245 101.597 611.155 98.4007 608.883 94.2815C606.61 90.0912 605.474 85.1907 605.474 79.5801C605.474 74.0404 606.539 69.2109 608.67 65.0917C610.871 60.9014 613.925 57.67 617.831 55.3973C621.809 53.0536 626.425 51.8817 631.681 51.8817C636.652 51.8817 640.984 52.9826 644.678 55.1842C648.371 57.3859 651.247 60.3688 653.307 64.1329C655.437 67.826 656.503 71.9808 656.503 76.5972C656.503 77.5915 656.503 78.3727 656.503 78.9409C656.503 79.509 656.467 80.3968 656.396 81.6042H614.316C614.529 85.0842 615.346 88.2092 616.766 90.979C618.258 93.6778 620.246 95.8084 622.732 97.3709C625.289 98.9334 628.201 99.7146 631.468 99.7146C635.161 99.7146 638.25 98.8624 640.736 97.1578C643.222 95.4533 645.033 93.1451 646.169 90.2333H655.011C654.088 93.5002 652.561 96.4121 650.43 98.9689C648.3 101.526 645.636 103.55 642.44 105.041C639.315 106.533 635.658 107.278 631.468 107.278ZM614.422 74.6796H647.66C647.447 69.9212 645.814 66.1925 642.76 63.4937C639.706 60.7949 635.942 59.4455 631.468 59.4455C627.206 59.4455 623.407 60.7594 620.069 63.3872C616.802 65.944 614.92 69.7081 614.422 74.6796ZM716.798 107.278C712.608 107.278 708.844 106.568 705.506 105.148C702.168 103.656 699.469 101.597 697.409 98.9689C695.421 96.2701 694.178 93.1096 693.681 89.4875H702.842C703.411 92.2574 704.866 94.6721 707.21 96.7317C709.625 98.7203 712.856 99.7146 716.905 99.7146C720.669 99.7146 723.439 98.9334 725.214 97.3709C726.99 95.7374 727.877 93.8198 727.877 91.6182C727.877 89.4875 727.345 87.854 726.279 86.7177C725.285 85.5814 723.794 84.7291 721.805 84.1609C719.887 83.5217 717.508 82.9181 714.667 82.3499C711.685 81.7107 708.773 80.8584 705.932 79.7931C703.091 78.6568 700.747 77.1298 698.901 75.2122C697.054 73.2947 696.131 70.7734 696.131 67.6485C696.131 64.5235 696.912 61.7892 698.475 59.4455C700.037 57.1018 702.239 55.2552 705.08 53.9058C707.991 52.5564 711.4 51.8817 715.307 51.8817C720.917 51.8817 725.498 53.3022 729.049 56.143C732.671 58.9128 734.766 62.89 735.335 68.0746H726.492C726.137 65.3758 724.966 63.2807 722.977 61.7892C721.059 60.2267 718.467 59.4455 715.2 59.4455C712.004 59.4455 709.518 60.1202 707.743 61.4696C706.038 62.819 705.186 64.5946 705.186 66.7962C705.186 68.2166 705.683 69.424 706.678 70.4183C707.672 71.4126 709.092 72.2649 710.939 72.9751C712.856 73.6853 715.094 74.3245 717.65 74.8926C721.201 75.6029 724.433 76.4906 727.345 77.556C730.257 78.6213 732.6 80.1837 734.376 82.2434C736.151 84.232 737.039 87.1083 737.039 90.8725C737.11 93.9974 736.293 96.8027 734.589 99.2885C732.955 101.774 730.612 103.727 727.558 105.148C724.575 106.568 720.988 107.278 716.798 107.278ZM773.58 107.278C768.679 107.278 764.24 106.142 760.263 103.869C756.357 101.597 753.268 98.4007 750.995 94.2815C748.722 90.0912 747.586 85.1907 747.586 79.5801C747.586 74.0404 748.651 69.2109 750.782 65.0917C752.983 60.9014 756.037 57.67 759.944 55.3973C763.921 53.0536 768.537 51.8817 773.793 51.8817C778.764 51.8817 783.096 52.9826 786.79 55.1842C790.483 57.3859 793.359 60.3688 795.419 64.1329C797.549 67.826 798.615 71.9808 798.615 76.5972C798.615 77.5915 798.615 78.3727 798.615 78.9409C798.615 79.509 798.579 80.3968 798.508 81.6042H756.428C756.641 85.0842 757.458 88.2092 758.878 90.979C760.37 93.6778 762.358 95.8084 764.844 97.3709C767.401 98.9334 770.313 99.7146 773.58 99.7146C777.273 99.7146 780.362 98.8624 782.848 97.1578C785.334 95.4533 787.145 93.1451 788.281 90.2333H797.123C796.2 93.5002 794.673 96.4121 792.542 98.9689C790.412 101.526 787.748 103.55 784.552 105.041C781.427 106.533 777.77 107.278 773.58 107.278ZM756.535 74.6796H789.773C789.559 69.9212 787.926 66.1925 784.872 63.4937C781.818 60.7949 778.054 59.4455 773.58 59.4455C769.318 59.4455 765.519 60.7594 762.181 63.3872C758.914 65.944 757.032 69.7081 756.535 74.6796ZM829.864 107.278C825.745 107.278 822.123 106.462 818.998 104.828C815.944 103.124 813.565 100.567 811.86 97.1578C810.156 93.6778 809.304 89.31 809.304 84.0544V53.1601H818.252V83.0956C818.252 88.5643 819.389 92.6835 821.661 95.4533C823.934 98.2232 827.343 99.6081 831.888 99.6081C836.434 99.6081 840.198 97.9746 843.181 94.7076C846.235 91.3696 847.762 86.6467 847.762 80.5388V53.1601H856.71V106H848.614L848.081 96.5187C846.377 99.8567 843.927 102.484 840.731 104.402C837.535 106.32 833.913 107.278 829.864 107.278Z" fill="white"/>
<path d="M345.998 250.622C331.404 250.622 320.053 245.919 311.945 236.514C303.837 227.001 299.783 213.92 299.783 197.273C299.783 186.03 301.621 176.301 305.297 168.085C309.08 159.761 314.377 153.383 321.188 148.95C327.998 144.41 335.998 142.14 345.187 142.14C349.403 142.14 353.349 142.626 357.024 143.599C360.808 144.464 364.105 145.491 366.916 146.68C369.834 147.761 372.105 148.788 373.726 149.761C375.348 150.626 376.158 151.058 376.158 151.058L374.699 158.842C374.699 158.842 373.888 158.409 372.267 157.545C370.753 156.68 368.645 155.707 365.943 154.626C363.24 153.437 360.213 152.41 356.862 151.545C353.511 150.68 350.051 150.248 346.484 150.248C336.214 150.248 328.052 154.139 321.999 161.923C315.945 169.706 312.918 181.381 312.918 196.948C312.918 212.299 315.999 223.758 322.161 231.325C328.431 238.784 336.863 242.514 347.457 242.514C352.322 242.514 356.592 241.703 360.267 240.081C363.943 238.46 366.97 236.622 369.348 234.568C371.834 232.514 373.672 230.676 374.861 229.055C376.05 227.433 376.645 226.623 376.645 226.623L381.185 231.812C381.185 231.812 380.483 232.785 379.077 234.73C377.78 236.568 375.726 238.73 372.915 241.217C370.105 243.703 366.483 245.919 362.051 247.865C357.619 249.703 352.268 250.622 345.998 250.622ZM428.423 250.622C416.748 250.622 407.721 246.838 401.343 239.271C394.965 231.595 391.776 221.326 391.776 208.461C391.776 195.705 394.965 185.489 401.343 177.814C407.721 170.139 416.748 166.301 428.423 166.301C436.206 166.301 442.855 168.085 448.368 171.652C453.881 175.111 458.097 179.976 461.016 186.246C463.935 192.516 465.394 199.921 465.394 208.461C465.394 221.326 462.151 231.595 455.665 239.271C449.179 246.838 440.098 250.622 428.423 250.622ZM428.423 243.487C436.315 243.487 442.314 240.514 446.422 234.568C450.53 228.623 452.584 219.92 452.584 208.461C452.584 197.219 450.476 188.57 446.26 182.516C442.152 176.463 436.206 173.436 428.423 173.436C420.64 173.436 414.694 176.463 410.586 182.516C406.478 188.57 404.424 197.219 404.424 208.461C404.424 219.92 406.424 228.623 410.424 234.568C414.532 240.514 420.531 243.487 428.423 243.487ZM485.979 249V167.923H507.708C516.464 167.923 523.275 170.085 528.139 174.409C533.112 178.733 535.599 184.895 535.599 192.894C535.599 199.272 534.193 204.407 531.382 208.299C528.572 212.191 525.112 215.056 521.005 216.893L541.112 249H527.653L509.654 219.326H497.654V249H485.979ZM497.654 212.515H507.221C512.302 212.515 516.248 211.11 519.059 208.299C521.977 205.488 523.437 200.462 523.437 193.219C523.437 186.733 521.977 182.03 519.059 179.111C516.248 176.084 511.978 174.571 506.248 174.571H497.654V212.515ZM551.329 249L579.544 167.923H593.327L620.731 249H608.569L600.137 224.839H568.031L559.599 249H551.329ZM570.139 218.677H598.029L584.408 176.517L570.139 218.677ZM665.449 289.701C661.882 289.701 658.963 289.106 656.693 287.917C654.531 286.836 652.963 285.701 651.99 284.512C651.017 283.431 650.531 282.89 650.531 282.89L653.45 279.647C653.45 279.647 653.828 280.08 654.585 280.945C655.45 281.809 656.693 282.674 658.314 283.539C659.936 284.404 661.936 284.836 664.314 284.836C671.449 284.836 675.016 281.161 675.016 273.81C675.016 271.431 674.314 269.594 672.908 268.296C671.611 266.999 670.044 266.08 668.206 265.54C666.368 264.999 664.746 264.621 663.341 264.405C662.044 264.297 661.395 264.134 661.395 263.918L663.179 250.459C652.693 249.595 644.531 245.487 638.694 238.136C632.964 230.785 630.099 221.109 630.099 209.11C630.099 200.462 631.613 192.948 634.64 186.57C637.667 180.084 641.937 175.111 647.45 171.652C652.963 168.085 659.503 166.301 667.071 166.301C671.611 166.301 675.773 166.95 679.557 168.247C683.448 169.436 686.529 170.625 688.799 171.814C691.07 173.003 692.205 173.598 692.205 173.598L690.745 180.408C690.745 180.408 689.61 179.868 687.34 178.787C685.178 177.598 682.367 176.463 678.908 175.382C675.449 174.301 671.881 173.76 668.206 173.76C660.206 173.76 653.936 176.679 649.396 182.516C644.964 188.354 642.747 197.11 642.747 208.786C642.747 220.461 645.072 229.109 649.72 234.73C654.477 240.244 660.909 243 669.017 243C672.8 243 676.097 242.406 678.908 241.217C681.827 240.027 684.205 238.676 686.043 237.163C687.989 235.541 689.448 234.136 690.421 232.947C691.394 231.758 691.88 231.163 691.88 231.163L696.259 236.028C696.259 236.028 695.718 236.784 694.637 238.298C693.556 239.703 691.88 241.379 689.61 243.325C687.34 245.162 684.367 246.838 680.692 248.351C677.124 249.757 672.8 250.513 667.719 250.622L666.746 260.189C666.746 260.405 667.503 260.675 669.017 260.999C670.638 261.324 672.476 261.918 674.53 262.783C676.584 263.648 678.367 264.945 679.881 266.675C681.502 268.513 682.313 270.999 682.313 274.134C682.313 278.782 680.908 282.512 678.097 285.323C675.287 288.241 671.07 289.701 665.449 289.701ZM751.645 152.518C748.51 152.518 745.591 151.923 742.888 150.734C740.186 149.437 737.537 148.194 734.943 147.005C732.348 145.707 729.592 145.059 726.673 145.059C724.619 145.059 722.835 145.599 721.322 146.68C719.916 147.653 718.835 148.68 718.079 149.761C717.322 150.842 716.943 151.383 716.943 151.383L713.214 147.329C713.214 147.329 713.754 146.518 714.835 144.897C716.025 143.167 717.754 141.437 720.024 139.708C722.403 137.978 725.321 137.113 728.781 137.113C732.24 137.113 735.267 137.762 737.861 139.059C740.564 140.248 743.159 141.491 745.645 142.789C748.131 143.978 750.726 144.572 753.428 144.572C755.374 144.572 756.942 144.194 758.131 143.437C759.428 142.68 760.347 141.978 760.887 141.329C761.428 140.572 761.698 140.194 761.698 140.194L765.428 144.248C765.428 144.248 764.941 144.951 763.968 146.356C763.104 147.761 761.644 149.167 759.59 150.572C757.644 151.869 754.996 152.518 751.645 152.518ZM704.458 249L732.672 167.923H746.456L773.86 249H761.698L753.266 224.839H721.159L712.727 249H704.458ZM723.268 218.677H751.158L737.537 176.517L723.268 218.677ZM819.875 250.622C808.2 250.622 799.173 246.838 792.795 239.271C786.417 231.595 783.228 221.326 783.228 208.461C783.228 195.705 786.417 185.489 792.795 177.814C799.173 170.139 808.2 166.301 819.875 166.301C827.659 166.301 834.307 168.085 839.82 171.652C845.333 175.111 849.549 179.976 852.468 186.246C855.387 192.516 856.846 199.921 856.846 208.461C856.846 221.326 853.603 231.595 847.117 239.271C840.631 246.838 831.55 250.622 819.875 250.622ZM819.875 243.487C827.767 243.487 833.766 240.514 837.874 234.568C841.982 228.623 844.036 219.92 844.036 208.461C844.036 197.219 841.928 188.57 837.712 182.516C833.604 176.463 827.659 173.436 819.875 173.436C812.092 173.436 806.146 176.463 802.038 182.516C797.93 188.57 795.876 197.219 795.876 208.461C795.876 219.92 797.876 228.623 801.876 234.568C805.984 240.514 811.984 243.487 819.875 243.487Z" fill="white"/>
</svg>
