<svg width="130" height="132" viewBox="0 0 130 132" fill="black" xmlns="http://www.w3.org/2000/svg">
<path fill-rule="evenodd" clip-rule="evenodd" d="M0 63.1986V67.9319C0 85.9197 9.971 103.075 19.0154 112.123C28.4152 121.526 44.0149 131.012 62.7151 131.012H64.2637C75.0435 131.012 82.1219 127.263 88.8414 123.155C92.4596 120.942 97.2777 117.311 99.8796 113.973C100.345 113.376 101.095 112.554 101.708 111.757C102.749 110.403 104.041 108.196 104.955 106.83C101.377 106.83 98.5431 109.187 96.3701 110.72C90.3386 114.976 77.0951 121.288 69.4254 121.288H68.4791C65.6899 121.288 57.8114 118.425 57.8114 115.694C57.8114 114.707 58.5917 114.575 59.5321 114.575C63.8815 114.575 69.9186 116.985 73.0387 116.985H74.2431C78.7013 116.985 83.7923 114.256 83.7923 109.498C75.4668 109.498 73.6879 109.614 65.7069 107.28C62.0323 106.205 57.4785 104.506 52.9079 104.506C46.5112 104.506 42.9098 107.28 36.6963 107.28C27.2945 107.28 19.8535 98.9957 16.1996 92.9485C11.7065 85.5124 8.43089 76.3487 8.43089 64.7477C8.43089 33.7111 33.741 8.63779 64.8659 8.63779C73.7273 8.63779 82.4943 10.7524 88.5528 13.7723C94.6641 16.8187 100.823 20.7133 105.059 25.574C109.984 31.2262 112.863 35.3477 116.083 42.773C118.272 47.8223 120.542 58.4649 120.542 66.1966C120.542 73.2023 118.313 83.2264 116.006 89.3133C110.999 102.526 104.104 114.419 92.656 122.581C88.6158 125.462 84.0679 127.769 79.6199 129.581C76.7287 130.759 76.875 130.582 75.5055 131.012C77.8407 131.012 82.1775 130.416 85.8472 129.359C92.408 127.468 95.744 125.578 98.9689 123.687C108.087 117.238 118.937 106.021 124.14 92.6308C126.529 86.4828 129.549 76.2963 129.549 67.8646V61.7486C129.549 52.8053 125.978 42.5132 122.964 36.4919C119.725 30.0194 114.822 22.9588 109.67 18.4658C103.148 12.7783 99.1341 9.63804 90.9011 5.9155C84.6169 3.07421 74.4831 0.0320129 65.4681 0.0320129H60.4784C43.0957 0.0320129 26.1416 10.0912 18.0488 19.3778C13.1445 25.0053 8.93056 30.5931 5.78512 38.0048C2.99911 44.5699 0 53.9497 0 63.1986Z" fill="#F6F4F2"/>
<path fill-rule="evenodd" clip-rule="evenodd" d="M27.133 52.8665V53.8131C27.133 64.5339 35.8726 74.0443 41.3923 79.566C44.2593 82.4339 60.6513 96.4979 64.4696 96.4979C66.6642 96.4979 75.0192 90.2393 76.8701 88.851C80.7346 85.9521 84.2893 82.9107 87.6759 79.523C92.6945 74.5027 102.15 63.2762 102.15 53.727V52.092C102.15 40.3187 85.8917 28.8848 72.1842 37.2619C70.7015 38.1679 65.4398 42.7977 64.3836 42.7977C63.4494 42.7977 60.8973 39.8994 59.9727 39.2067C54.1517 34.8458 49.3913 33.1243 41.534 35.0866C33.7371 37.0336 27.133 43.2372 27.133 52.8665Z" fill="#F6F4F2"/>
</svg>
