<svg width="310" height="300" viewBox="0 0 310 300" fill="none" xmlns="http://www.w3.org/2000/svg">
<path fill-rule="evenodd" clip-rule="evenodd" d="M0.885132 144.678V155.519C0.885132 196.719 24.6767 236.012 46.2574 256.734C68.6861 278.271 105.908 300 150.528 300H154.224C179.945 300 196.835 291.411 212.868 282.002C221.501 276.936 232.998 268.618 239.206 260.972C240.316 259.606 242.105 257.722 243.568 255.896C246.052 252.795 249.135 247.741 251.317 244.612C242.779 244.612 236.017 250.011 230.832 253.523C216.441 263.271 184.84 277.727 166.54 277.727H164.282C157.627 277.727 138.828 271.169 138.828 264.915C138.828 262.653 140.69 262.352 142.934 262.352C153.312 262.352 167.717 267.871 175.161 267.871H178.035C188.673 267.871 200.82 261.621 200.82 250.723C180.955 250.723 176.711 250.989 157.667 245.642C148.899 243.18 138.034 239.29 127.128 239.29C111.865 239.29 103.271 245.642 88.4456 245.642C66.0119 245.642 48.2571 226.668 39.5388 212.818C28.8178 195.786 21.0019 174.797 21.0019 148.226C21.0019 77.1392 81.394 19.7108 155.66 19.7108C176.805 19.7108 197.723 24.5542 212.179 31.4711C226.761 38.4486 241.457 47.3688 251.564 58.5018C263.317 71.4477 270.186 80.8876 277.868 97.8948C283.092 109.46 288.508 133.836 288.508 151.545C288.508 167.591 283.189 190.55 277.685 204.492C265.739 234.755 249.286 261.993 221.97 280.69C212.33 287.288 201.478 292.572 190.865 296.722C183.966 299.419 184.315 299.014 181.047 300C186.619 300 196.967 298.634 205.723 296.213C221.378 291.883 229.338 287.553 237.033 283.223C258.79 268.451 284.678 242.758 297.093 212.09C302.794 198.009 310 174.677 310 155.365V141.357C310 120.873 301.478 97.2997 294.288 83.5084C286.558 68.6837 274.86 52.5119 262.566 42.221C247.004 29.1943 237.427 22.0018 217.783 13.4756C202.788 6.9679 178.608 0 157.097 0H145.191C103.715 0 63.2611 23.0397 43.9511 44.3099C32.2491 57.1993 22.1942 69.9976 14.6889 86.9736C8.04125 102.01 0.885132 123.494 0.885132 144.678Z" fill="#B6C7AA"/>
<path fill-rule="evenodd" clip-rule="evenodd" d="M65.6267 121.014V123.182C65.6267 147.737 86.4799 169.52 99.6506 182.167C106.491 188.735 145.604 220.948 154.715 220.948C159.951 220.948 179.887 206.613 184.303 203.433C193.524 196.794 202.006 189.828 210.087 182.068C222.062 170.57 244.624 144.856 244.624 122.985V119.24C244.624 92.2739 205.83 66.0856 173.122 85.2725C169.585 87.3477 157.03 97.9519 154.51 97.9519C152.281 97.9519 146.191 91.3136 143.985 89.7269C130.096 79.7386 118.737 75.7958 99.9886 80.2902C81.3846 84.7498 65.6267 98.9586 65.6267 121.014Z" fill="#B6C7AA"/>
</svg>
